<?xml version="1.0" encoding="utf-8"?>
<!-- Generator: Adobe Illustrator 17.0.2, SVG Export Plug-In . SVG Version: 6.00 Build 0)  -->
<!DOCTYPE svg PUBLIC "-//W3C//DTD SVG 1.1//EN" "http://www.w3.org/Graphics/SVG/1.1/DTD/svg11.dtd">
<svg version="1.1" id="Your_Icon" xmlns="http://www.w3.org/2000/svg" xmlns:xlink="http://www.w3.org/1999/xlink" x="0px" y="0px"
	 width="72.32px" height="90.391px" viewBox="0 0 72.32 90.391" enable-background="new 0 0 72.32 90.391" xml:space="preserve">
<path fill="none" stroke="#EB6D46" stroke-width="3.1922" stroke-linecap="round" stroke-miterlimit="10" d="M35.925,18.414
	c0,0-3.795-6.952,2.866-16.818"/>
<path fill="#EC6E47" stroke="#EC6E47" stroke-width="2.2301" stroke-linecap="round" stroke-linejoin="round" stroke-miterlimit="10" d="
	M70.923,52.606C68.936,74.011,57,90.403,44.272,89.216c-2.666-0.249-5.151-1.247-7.396-2.864c-1.909,1.359-4.016,2.245-6.286,2.589
	C17.948,90.858,5.091,75.198,1.858,53.948s4.395-40.041,17.028-41.959c5.891-0.894,11.825,2.03,16.821,7.559
	c4.549-5.384,10.088-8.368,15.781-7.834C64.206,12.901,72.909,31.21,70.923,52.606z"/>
</svg>
