<?xml version="1.0" encoding="utf-8"?>
<!-- Generator: Adobe Illustrator 17.0.2, SVG Export Plug-In . SVG Version: 6.00 Build 0)  -->
<!DOCTYPE svg PUBLIC "-//W3C//DTD SVG 1.1//EN" "http://www.w3.org/Graphics/SVG/1.1/DTD/svg11.dtd">
<svg version="1.1" id="Your_Icon" xmlns="http://www.w3.org/2000/svg" xmlns:xlink="http://www.w3.org/1999/xlink" x="0px" y="0px"
	 width="74.2px" height="94.26px" viewBox="0 0 74.2 94.26" enable-background="new 0 0 74.2 94.26" xml:space="preserve">
<path fill="none" stroke="#7AA23F" stroke-width="2.6379" stroke-linecap="round" stroke-linejoin="round" stroke-miterlimit="10" d="
	M18.913,58.469c0,0,26.907-25.365,28.49-35.917S63.408,54.031,56.9,64.495"/>
<path fill="#EC6E47" stroke="#EC6E47" stroke-width="4.2207" stroke-miterlimit="10" d="M56.893,66.509
	c0.605-0.041,1.246-0.167,1.95-0.396c2.939-0.955,7.313-2.411,9.728,1.088c5.205,7.541,1.99,19.289-6.347,22.965
	c-9.531,4.202-20.354-5.85-19.464-15.536c0.437-4.757,2.818-12.41,9.023-9.486C53.657,66.026,55.125,66.629,56.893,66.509z"/>
<path fill="#EC6E47" stroke="#EC6E47" stroke-width="4.2207" stroke-miterlimit="10" d="M19.318,60.89
	c0.599,0.094,1.252,0.113,1.989,0.046c3.077-0.279,7.666-0.728,9.244,3.221c3.401,8.508-2.342,19.249-11.287,20.982
	C9.038,87.12,0.717,74.916,3.735,65.67c1.482-4.541,5.503-11.475,10.903-7.246C16.269,59.701,17.568,60.615,19.318,60.89z"/>
<path fill="#7AA23F" stroke="#7AA23F" stroke-width="1.3735" stroke-linecap="round" stroke-linejoin="round" stroke-miterlimit="10" d="
	M46.506,21.559c-0.463-2.098,0.14-4.462,1.989-6.794c3.859-4.867,8.141-6.055,14.083-6.161c0.002,0,7.634-0.137,9.222-6.915
	c-0.987,4.213-1.926,8.343-3.374,12.443c-2.353,6.663-7.732,16.752-16.443,13.128C48.949,25.998,47.034,23.951,46.506,21.559z"/>
</svg>
