<?xml version="1.0" encoding="utf-8"?>
<!-- Generator: Adobe Illustrator 17.0.2, SVG Export Plug-In . SVG Version: 6.00 Build 0)  -->
<!DOCTYPE svg PUBLIC "-//W3C//DTD SVG 1.1//EN" "http://www.w3.org/Graphics/SVG/1.1/DTD/svg11.dtd">
<svg version="1.1" id="Layer_1" xmlns="http://www.w3.org/2000/svg" xmlns:xlink="http://www.w3.org/1999/xlink" x="0px" y="0px"
	 width="380.44px" height="167.54px" viewBox="0 0 380.44 167.54" enable-background="new 0 0 380.44 167.54" xml:space="preserve">
<path fill="#7AA23F" stroke="#7AA23F" stroke-width="1.8058" stroke-linecap="round" stroke-linejoin="round" stroke-miterlimit="10" d="
	M369.427,85.629h9.109c0,44.188-39.73,80.01-88.739,80.01s-88.739-35.822-88.739-80.01h8.553"/>
<path fill="#F69159" stroke="#F69159" stroke-width="2.6214" stroke-linecap="round" stroke-linejoin="round" stroke-miterlimit="10" d="
	M368.123,85.873c-3.1,39.175-37.196,70.034-78.8,70.034c-41.595,0-75.685-30.846-78.798-70.008L368.123,85.873z"/>
<path fill="#333333" stroke="#333333" stroke-width="1.8058" stroke-linecap="round" stroke-linejoin="round" stroke-miterlimit="10" d="
	M226.766,92.808c0,0-3.16,6.471,0,6.471C229.926,99.279,227.97,95.968,226.766,92.808z"/>
<path fill="#333333" stroke="#333333" stroke-width="1.8058" stroke-linecap="round" stroke-linejoin="round" stroke-miterlimit="10" d="
	M260.096,92.808c0,0-3.16,6.471,0,6.471C263.256,99.279,261.3,95.968,260.096,92.808z"/>
<path fill="#333333" stroke="#333333" stroke-width="1.8058" stroke-linecap="round" stroke-linejoin="round" stroke-miterlimit="10" d="
	M258.538,130.398c0,0-3.16,6.471,0,6.471C261.698,136.869,259.742,133.559,258.538,130.398z"/>
<path fill="#333333" stroke="#333333" stroke-width="1.8058" stroke-linecap="round" stroke-linejoin="round" stroke-miterlimit="10" d="
	M242.531,112.462c0,0-3.16,6.471,0,6.471C245.691,118.933,243.735,115.622,242.531,112.462z"/>
<path fill="#333333" stroke="#333333" stroke-width="1.8058" stroke-linecap="round" stroke-linejoin="round" stroke-miterlimit="10" d="
	M292.451,92.808c0,0-3.16,6.471,0,6.471S293.654,95.968,292.451,92.808z"/>
<path fill="#333333" stroke="#333333" stroke-width="1.8058" stroke-linecap="round" stroke-linejoin="round" stroke-miterlimit="10" d="
	M292.451,138.398c0,0-3.16,6.471,0,6.471C295.611,144.869,293.654,141.559,292.451,138.398z"/>
<path fill="#333333" stroke="#333333" stroke-width="1.8058" stroke-linecap="round" stroke-linejoin="round" stroke-miterlimit="10" d="
	M308.185,112.053c0,0-3.16,6.471,0,6.471C311.345,118.524,309.389,115.213,308.185,112.053z"/>
<path fill="#333333" stroke="#333333" stroke-width="1.8058" stroke-linecap="round" stroke-linejoin="round" stroke-miterlimit="10" d="
	M323.592,92.303c0,0-3.16,6.471,0,6.471S324.796,95.463,323.592,92.303z"/>
<path fill="#333333" stroke="#333333" stroke-width="1.8058" stroke-linecap="round" stroke-linejoin="round" stroke-miterlimit="10" d="
	M275.749,112.462c0,0-3.16,6.471,0,6.471C278.91,118.933,276.953,115.622,275.749,112.462z"/>
<path fill="#333333" stroke="#333333" stroke-width="1.8058" stroke-linecap="round" stroke-linejoin="round" stroke-miterlimit="10" d="
	M340.534,112.053c0,0-3.16,6.471,0,6.471S341.738,115.213,340.534,112.053z"/>
<path fill="#333333" stroke="#333333" stroke-width="1.8058" stroke-linecap="round" stroke-linejoin="round" stroke-miterlimit="10" d="
	M353.937,92.303c0,0-3.16,6.471,0,6.471C357.097,98.774,355.141,95.463,353.937,92.303z"/>
<path fill="none" stroke="#FFFFFF" stroke-width="2" stroke-linecap="round" stroke-miterlimit="10" d="M244.692,85.628
	c-0.926-2.863,9.612-12.244,11.175-14.159c2.84-3.479,7.461-8.525,4.313-13.07c-4.195-6.057-13.313-3.564-16.865,1.74
	C238.741,66.966,242.401,78.572,244.692,85.628z"/>
<path fill="none" stroke="#FFFFFF" stroke-width="2" stroke-linecap="round" stroke-miterlimit="10" d="M244.692,85.629
	c0,0,27.161,1.706,29.769-17.952"/>
<path fill="none" stroke="#FFFFFF" stroke-width="2" stroke-linecap="round" stroke-miterlimit="10" d="M245.398,83.931
	c-2.684,1.361-13.593-7.585-15.729-8.831c-3.879-2.262-9.584-6.04-13.583-2.222c-5.329,5.088-1.445,13.706,4.348,16.388
	C227.893,92.719,238.786,87.293,245.398,83.931z"/>
<path fill="#F69159" d="M169.806,108.494l-0.471-2.646c0.485-0.044,0.966-0.108,1.443-0.193
	c11.298-2.013,18.826-12.806,16.813-24.104c-0.259-1.452-0.668-2.846-1.202-4.164c0.147-0.015,0.303-0.043,0.448-0.069
	c11.298-2.013,18.826-12.806,16.813-24.104c-2.011-11.288-12.805-18.816-24.103-16.803c-0.477,0.085-0.951,0.191-1.412,0.305
	c0.511-2.478,0.56-5.088,0.088-7.733c-2.013-11.298-12.806-18.826-24.104-16.813c-0.488,0.087-0.961,0.193-1.431,0.319
	c-1.366-5.986-7.227-9.919-13.337-8.831L14.616,25.885c-6.297,1.122-10.501,7.148-9.379,13.446l17.01,95.457
	c1.122,6.297,7.148,10.501,13.446,9.379l124.735-22.227C166.725,120.818,170.928,114.792,169.806,108.494z M180.044,65.812
	c-3.119-1.103-5.569-3.803-6.191-7.289c-0.621-3.486,0.746-6.866,3.294-8.968c1.21-1.018,2.699-1.733,4.38-2.033
	c5.156-0.919,10.082,2.517,11.001,7.673c0.921,5.167-2.517,10.082-7.673,11.001C183.174,66.496,181.529,66.34,180.044,65.812z"/>
<g>
	<path fill="#FFFFFF" d="M30.511,77.049l-2.905-15.897c-0.074-0.403,0.001-0.769,0.223-1.097c0.224-0.328,0.536-0.528,0.939-0.603
		l10.356-1.893c0.403-0.073,0.77,0.003,1.098,0.23c0.328,0.228,0.53,0.542,0.604,0.946c0.07,0.386-0.009,0.741-0.236,1.065
		c-0.229,0.325-0.544,0.523-0.947,0.597l-8.944,1.635l0.816,4.465l6.806-1.244c0.385-0.071,0.74,0.009,1.064,0.236
		c0.324,0.228,0.521,0.535,0.592,0.92c0.074,0.403-0.001,0.767-0.225,1.09s-0.528,0.52-0.913,0.591l-6.806,1.244l1.315,7.195
		c0.07,0.386-0.009,0.741-0.236,1.065c-0.229,0.324-0.535,0.521-0.92,0.592c-0.404,0.073-0.768-0.001-1.091-0.225
		C30.778,77.74,30.581,77.435,30.511,77.049z"/>
	<path fill="#FFFFFF" d="M44.455,70.61c-0.085-0.261-0.153-0.536-0.206-0.822c-0.061-0.333-0.097-0.683-0.108-1.052
		c-0.032-0.681-0.013-1.353,0.061-2.017c0.115-0.838,0.343-1.615,0.683-2.332c0.341-0.717,0.766-1.35,1.274-1.897
		c0.813-0.91,1.882-1.486,3.206-1.728c0.493-0.09,0.964-0.129,1.411-0.119c0.447,0.011,0.847,0.042,1.199,0.094
		s0.649,0.113,0.89,0.185c0.24,0.073,0.39,0.112,0.446,0.12c0.121,0.052,0.277,0.146,0.469,0.283
		c0.192,0.137,0.318,0.371,0.379,0.702l0.998,5.462c0.269,1.47,0.576,3.104,0.924,4.902l0.054,0.293
		c0.072,0.4-0.008,0.77-0.242,1.107c-0.236,0.337-0.555,0.542-0.958,0.616c-0.332,0.061-0.639,0.018-0.92-0.128
		c-0.282-0.146-0.496-0.368-0.643-0.663l-0.049,0.036c-0.356,0.23-0.766,0.455-1.23,0.672c-0.465,0.218-0.934,0.371-1.407,0.457
		l-0.107,0.02c-1.421,0.223-2.688-0.05-3.799-0.817C45.674,73.206,44.899,72.082,44.455,70.61z M47.3,69.747
		c0.044,0.141,0.124,0.349,0.239,0.625c0.116,0.276,0.283,0.547,0.504,0.814c0.221,0.267,0.497,0.479,0.827,0.637
		c0.331,0.158,0.74,0.201,1.229,0.131l0.054-0.01c0.513-0.094,1.062-0.366,1.648-0.817c0.19-0.128,0.354-0.252,0.488-0.375
		c0.136-0.123,0.259-0.24,0.368-0.353c-0.041-0.226-0.098-0.535-0.17-0.932c-0.072-0.396-0.149-0.841-0.23-1.338
		c-0.082-0.496-0.169-1.035-0.262-1.618s-0.185-1.172-0.274-1.77l-0.202-1.107c-0.114-0.016-0.235-0.027-0.361-0.032
		c-0.126-0.004-0.26-0.012-0.401-0.024c-0.289-0.002-0.559,0.019-0.811,0.065l-0.054,0.01c-0.647,0.119-1.17,0.385-1.567,0.803
		c-0.395,0.435-0.682,0.896-0.862,1.384c-0.18,0.488-0.29,0.927-0.33,1.315c-0.067,0.449-0.087,0.904-0.058,1.363
		c0.016,0.239,0.043,0.466,0.083,0.682C47.201,69.389,47.248,69.57,47.3,69.747z"/>
	<path fill="#FFFFFF" d="M56.708,55.598c-0.077-0.421-0.001-0.799,0.227-1.133c0.229-0.333,0.557-0.54,0.982-0.617
		c0.406-0.074,0.779,0.004,1.115,0.234c0.337,0.23,0.544,0.556,0.621,0.978l1.609,8.656c0.23-0.311,0.48-0.643,0.749-0.998
		s0.546-0.739,0.831-1.153c0.228-0.328,0.487-0.721,0.779-1.178c0.291-0.456,0.569-0.897,0.834-1.327
		c0.309-0.492,0.613-1.006,0.914-1.542c0.202-0.361,0.491-0.604,0.867-0.729c0.061-0.021,0.127-0.037,0.199-0.051
		c0.305-0.056,0.606,0.001,0.906,0.168c0.361,0.204,0.601,0.498,0.718,0.884c0.019,0.052,0.034,0.11,0.045,0.172
		c0.06,0.323,0,0.635-0.177,0.936c-0.402,0.685-0.798,1.336-1.186,1.953c-0.319,0.531-0.645,1.062-0.975,1.589
		c-0.329,0.529-0.6,0.947-0.812,1.254c0.151,0.121,0.327,0.271,0.527,0.453c0.199,0.182,0.411,0.376,0.635,0.586
		c0.363,0.313,0.794,0.688,1.29,1.126c0.497,0.438,0.974,0.865,1.43,1.282c0.539,0.467,1.091,0.945,1.652,1.435
		c0.277,0.255,0.449,0.557,0.513,0.907c0.012,0.062,0.018,0.122,0.019,0.177c0.03,0.421-0.096,0.796-0.378,1.125
		c-0.229,0.273-0.512,0.441-0.854,0.504c-0.062,0.011-0.121,0.018-0.177,0.018c-0.421,0.031-0.793-0.105-1.117-0.407
		c-0.642-0.624-1.26-1.215-1.853-1.774c-0.504-0.473-1.021-0.955-1.55-1.447c-0.53-0.491-0.96-0.878-1.29-1.161
		c-0.13-0.105-0.26-0.214-0.386-0.325c-0.127-0.111-0.243-0.204-0.35-0.277c-0.228,0.227-0.436,0.443-0.625,0.649
		c-0.189,0.207-0.377,0.381-0.563,0.527l0.757,3.989c0.077,0.422-0.001,0.802-0.233,1.141c-0.232,0.34-0.553,0.546-0.959,0.621
		c-0.426,0.078-0.805,0-1.137-0.23s-0.537-0.562-0.616-0.993L56.708,55.598z"/>
	<path fill="#FFFFFF" d="M71.098,63.989c-0.164-0.896-0.159-1.779,0.016-2.65c0.175-0.87,0.485-1.664,0.934-2.38
		c0.448-0.716,1.015-1.332,1.698-1.846c0.686-0.514,1.452-0.877,2.304-1.088c0.158-0.047,0.317-0.086,0.479-0.115
		c0.878-0.161,1.72-0.097,2.522,0.192c0.951,0.336,1.763,0.873,2.435,1.612c0.116,0.127,0.219,0.259,0.309,0.396
		c0.09,0.136,0.188,0.26,0.291,0.371c0.12,0.155,0.199,0.334,0.237,0.541c0.021,0.117,0.032,0.25,0.031,0.397
		c-0.013,0.391-0.193,0.721-0.543,0.988c-0.298,0.241-0.716,0.583-1.25,1.028c-0.535,0.445-1.116,0.924-1.745,1.438
		c-0.63,0.514-1.266,1.037-1.909,1.572s-1.22,1.006-1.729,1.414c0.363,0.314,0.757,0.566,1.182,0.757
		c0.665,0.295,1.375,0.374,2.127,0.236c1.05-0.192,1.886-0.762,2.51-1.709l0.445-0.679c0.213-0.307,0.507-0.496,0.884-0.564
		c0.385-0.07,0.742,0.008,1.071,0.235c0.328,0.227,0.527,0.525,0.594,0.892c0.062,0.332,0.003,0.653-0.171,0.962l-0.446,0.679
		c-0.503,0.797-1.133,1.454-1.891,1.972c-0.743,0.497-1.572,0.829-2.486,0.997c-0.915,0.167-1.811,0.146-2.688-0.065
		c-0.877-0.21-1.67-0.567-2.378-1.073c-0.709-0.505-1.314-1.143-1.816-1.913S71.272,64.949,71.098,63.989z M73.847,63.292
		c0.345-0.294,0.749-0.63,1.213-1.007s0.927-0.755,1.391-1.136c0.463-0.382,0.903-0.747,1.321-1.097
		c0.418-0.349,0.775-0.649,1.073-0.898c-0.562-0.388-1.16-0.543-1.795-0.464c-0.624,0.133-1.148,0.356-1.573,0.67
		c-0.424,0.313-0.769,0.685-1.033,1.113C73.917,61.347,73.719,62.287,73.847,63.292z"/>
	<path fill="#FFFFFF" d="M96.492,64.991l-2.905-15.897c-0.074-0.403,0-0.769,0.223-1.097c0.223-0.328,0.536-0.529,0.939-0.603
		l10.355-1.893c0.404-0.074,0.77,0.003,1.099,0.23s0.53,0.542,0.604,0.945c0.07,0.386-0.01,0.741-0.236,1.065
		c-0.229,0.324-0.544,0.523-0.947,0.597l-8.943,1.635l0.815,4.465l6.806-1.244c0.385-0.07,0.74,0.009,1.064,0.236
		c0.324,0.229,0.521,0.536,0.592,0.921c0.073,0.403-0.001,0.767-0.225,1.09c-0.224,0.324-0.528,0.521-0.913,0.591l-6.806,1.244
		l1.315,7.195c0.07,0.386-0.009,0.741-0.236,1.065c-0.229,0.324-0.535,0.521-0.921,0.592c-0.403,0.074-0.767-0.001-1.09-0.225
		C96.759,65.681,96.562,65.377,96.492,64.991z"/>
	<path fill="#FFFFFF" d="M111.482,62.223l-2.03-11.109c-0.077-0.421,0.003-0.794,0.24-1.121c0.236-0.326,0.557-0.526,0.961-0.6
		c0.421-0.077,0.793-0.003,1.117,0.22c0.323,0.224,0.523,0.546,0.601,0.968l0.042,0.229c0.209-0.325,0.454-0.632,0.735-0.919
		c0.28-0.288,0.594-0.523,0.94-0.708c0.46-0.269,0.928-0.447,1.402-0.534c0.711-0.13,1.346-0.047,1.904,0.249
		c0.73,0.376,1.167,0.959,1.312,1.748l0.147,0.807c0.07,0.386-0.007,0.745-0.23,1.078c-0.224,0.333-0.535,0.536-0.936,0.609
		c-0.398,0.073-0.76-0.007-1.083-0.24c-0.322-0.232-0.519-0.542-0.589-0.928l-0.076-0.417l-0.054,0.01
		c-0.036,0.006-0.096,0.022-0.18,0.046c-0.084,0.025-0.185,0.067-0.304,0.125c-0.298,0.147-0.601,0.416-0.909,0.805
		c-0.309,0.39-0.57,0.832-0.786,1.325s-0.336,0.9-0.361,1.219c-0.024,0.32-0.039,0.517-0.044,0.592l1.099,6.012
		c0.073,0.403-0.001,0.771-0.223,1.104c-0.222,0.333-0.543,0.538-0.965,0.614c-0.403,0.074-0.774-0.004-1.112-0.234
		C111.762,62.944,111.557,62.627,111.482,62.223z"/>
	<path fill="#FFFFFF" d="M122.292,53.686l-0.01-0.054c-0.07-0.385-0.141-0.845-0.209-1.379s-0.13-1.054-0.183-1.559
		c-0.052-0.505-0.097-0.935-0.133-1.29c-0.036-0.355-0.056-0.541-0.059-0.559c-0.027-0.355,0.073-0.676,0.3-0.963
		c0.227-0.286,0.528-0.464,0.903-0.533c0.41-0.075,0.782-0.002,1.114,0.219c0.332,0.222,0.533,0.524,0.604,0.909l0.022,0.426
		c0.008,0.249,0.026,0.539,0.055,0.871s0.062,0.684,0.103,1.056c0.04,0.372,0.086,0.751,0.139,1.14
		c0.053,0.388,0.11,0.756,0.174,1.105l0.005,0.027l0.011,0.054c0.093,0.51,0.197,1.031,0.313,1.564
		c0.115,0.533,0.242,1.023,0.379,1.469c0.193,0.547,0.372,0.95,0.534,1.206c0.163,0.257,0.312,0.419,0.444,0.487
		c0.043,0.029,0.136,0.059,0.281,0.087c0.145,0.029,0.339,0.021,0.581-0.023c0.351-0.064,0.695-0.183,1.035-0.355
		c0.341-0.172,0.646-0.37,0.917-0.59s0.509-0.435,0.712-0.643s0.34-0.374,0.411-0.499c0.029-0.042,0.042-0.12,0.04-0.235
		s-0.012-0.218-0.028-0.307l-1.272-7.726c-0.067-0.366,0.013-0.711,0.241-1.035c0.228-0.324,0.535-0.521,0.921-0.591
		c0.403-0.074,0.767,0.001,1.09,0.225c0.323,0.224,0.52,0.519,0.586,0.886l1.994,10.907c0.076,0.422-0.005,0.803-0.244,1.143
		c-0.238,0.341-0.572,0.55-1.004,0.628c-0.35,0.064-0.669,0.027-0.958-0.113c-0.289-0.139-0.516-0.348-0.678-0.627l-0.071,0.069
		c-0.406,0.365-0.884,0.693-1.43,0.984c-0.546,0.292-1.143,0.497-1.791,0.615c-0.492,0.09-1.002,0.109-1.529,0.058
		c-0.555-0.047-1.045-0.198-1.471-0.454c-0.456-0.315-0.836-0.709-1.14-1.183c-0.304-0.472-0.562-1.001-0.776-1.589
		c-0.214-0.586-0.391-1.205-0.531-1.856C122.544,55.007,122.413,54.35,122.292,53.686z"/>
	<path fill="#FFFFFF" d="M135.233,42.136l-0.119-0.951c-0.073-0.403,0.007-0.773,0.243-1.107c0.234-0.335,0.554-0.54,0.958-0.613
		c0.403-0.074,0.771,0.005,1.106,0.236c0.334,0.23,0.537,0.548,0.611,0.951l0.118,0.952c0.074,0.403-0.004,0.775-0.234,1.113
		c-0.23,0.339-0.547,0.545-0.95,0.618c-0.403,0.074-0.774-0.006-1.114-0.241C135.513,42.859,135.307,42.539,135.233,42.136z
		 M137.91,57.393l-1.983-10.854c-0.077-0.421,0.006-0.802,0.25-1.144c0.243-0.341,0.575-0.55,0.997-0.627
		c0.421-0.077,0.804-0.001,1.146,0.229s0.554,0.559,0.632,0.989l1.931,10.863c0.077,0.422,0,0.799-0.231,1.133
		c-0.23,0.334-0.557,0.54-0.978,0.617c-0.422,0.077-0.802,0-1.141-0.23C138.194,58.141,137.987,57.815,137.91,57.393z"/>
	<path fill="#FFFFFF" d="M141.349,45.41c-0.074-0.407,0.002-0.779,0.23-1.116c0.229-0.336,0.547-0.541,0.957-0.616l1.881-0.344
		l-0.511-2.793c-0.073-0.401,0.003-0.764,0.229-1.091c0.225-0.327,0.551-0.529,0.976-0.607c0.407-0.074,0.777,0.001,1.107,0.226
		c0.332,0.225,0.533,0.538,0.606,0.938l0.511,2.793l1.881-0.344c0.418-0.077,0.791,0.003,1.119,0.237
		c0.327,0.235,0.529,0.556,0.604,0.963c0.078,0.425,0.004,0.803-0.221,1.134s-0.545,0.535-0.964,0.611l-1.881,0.344l1.738,9.512
		c0.074,0.403-0.005,0.766-0.235,1.09c-0.23,0.324-0.55,0.523-0.957,0.598c-0.426,0.078-0.801,0.005-1.127-0.217
		s-0.525-0.535-0.599-0.938l-1.738-9.512l-1.881,0.344c-0.401,0.073-0.769-0.005-1.104-0.233
		C141.634,46.162,141.427,45.836,141.349,45.41z"/>
	<path fill="#FFFFFF" d="M68.365,100.869c-0.077-0.421-0.002-0.806,0.225-1.153c0.228-0.347,0.541-0.557,0.942-0.631
		c0.31-0.057,0.615-0.008,0.918,0.145c0.302,0.153,0.526,0.379,0.672,0.676c0.2,0.362,0.466,0.661,0.797,0.896
		c0.333,0.236,0.684,0.413,1.056,0.53c0.37,0.118,0.759,0.188,1.164,0.211c0.405,0.023,0.792,0.002,1.162-0.066
		c0.019-0.003,0.213-0.053,0.585-0.148c0.371-0.096,0.754-0.286,1.146-0.571c0.979-0.67,1.375-1.549,1.187-2.635
		c-0.009-0.146-0.043-0.309-0.104-0.488c-0.061-0.179-0.19-0.356-0.39-0.534c-0.199-0.176-0.44-0.327-0.722-0.452
		c-0.282-0.124-0.582-0.229-0.898-0.315c-0.317-0.086-0.646-0.153-0.989-0.202c-0.343-0.048-0.661-0.096-0.957-0.145
		c-1.623-0.157-2.985-0.515-4.088-1.074c-0.7-0.381-1.262-0.839-1.683-1.374c-0.415-0.545-0.68-1.131-0.794-1.759
		c-0.023-0.125-0.042-0.251-0.056-0.379c-0.177-1.562,0.204-2.847,1.14-3.857c0.936-1.009,2.375-1.692,4.318-2.047l0.443-0.081
		c0.3-0.036,0.646-0.064,1.041-0.086c0.394-0.021,0.81-0.002,1.246,0.057c0.437,0.06,0.874,0.179,1.314,0.357
		c0.44,0.179,0.853,0.433,1.236,0.761c0.589,0.541,0.985,1.214,1.188,2.021l0.012,0.067l0.01,0.054l0.005,0.027
		c0.074,0.403,0,0.767-0.223,1.09c-0.222,0.324-0.524,0.52-0.908,0.59c-0.348,0.063-0.671,0-0.969-0.191
		c-0.297-0.19-0.496-0.458-0.596-0.801c-0.062-0.136-0.129-0.261-0.2-0.373c-0.071-0.112-0.143-0.208-0.213-0.288
		c-0.296-0.251-0.799-0.418-1.509-0.502c-0.31-0.018-0.575-0.015-0.798,0.007c-0.224,0.022-0.362,0.038-0.415,0.047l-0.055,0.01
		c-1.398,0.256-2.313,0.701-2.744,1.336c-0.271,0.393-0.373,0.921-0.308,1.585c0.005,0.027,0.009,0.049,0.013,0.067
		c0.051,0.278,0.195,0.516,0.436,0.713c0.262,0.211,0.585,0.386,0.972,0.524s0.792,0.245,1.219,0.319
		c0.426,0.075,0.809,0.128,1.147,0.159c2.063,0.188,3.65,0.667,4.759,1.437c1.148,0.782,1.846,1.845,2.092,3.19
		c0.013,0.072,0.026,0.144,0.039,0.215c0.146,0.9,0.063,1.768-0.246,2.602c-0.156,0.409-0.357,0.791-0.603,1.146
		c-0.244,0.355-0.546,0.69-0.904,1.006c-0.588,0.524-1.216,0.934-1.884,1.227c-0.667,0.293-1.247,0.485-1.739,0.575
		c-0.753,0.138-1.49,0.174-2.211,0.105c-0.722-0.067-1.4-0.228-2.034-0.483c-0.636-0.254-1.208-0.589-1.72-1.006
		c-0.513-0.416-0.945-0.916-1.303-1.5C68.487,101.333,68.413,101.129,68.365,100.869z"/>
	<path fill="#FFFFFF" d="M85.415,101.075l-2.93-16.031c-0.077-0.422,0.001-0.8,0.236-1.135c0.236-0.335,0.556-0.539,0.959-0.613
		s0.772,0.004,1.106,0.236s0.539,0.558,0.616,0.979l1.014,5.546c0.085-0.144,0.173-0.282,0.266-0.413
		c0.091-0.131,0.182-0.261,0.27-0.387c0.909-1.259,1.934-1.993,3.072-2.201c0.223-0.041,0.471-0.058,0.743-0.053
		c0.271,0.005,0.562,0.062,0.866,0.167c0.304,0.106,0.608,0.274,0.913,0.505c0.305,0.231,0.595,0.547,0.87,0.949
		c0.809,1.099,1.452,2.805,1.93,5.119c0.088,0.381,0.188,0.874,0.298,1.479c0.11,0.605,0.219,1.195,0.323,1.769
		c0.12,0.655,0.236,1.342,0.35,2.062c0.073,0.403,0.001,0.773-0.217,1.11c-0.219,0.336-0.527,0.541-0.928,0.614
		c-0.399,0.073-0.764-0.008-1.091-0.245c-0.328-0.236-0.529-0.557-0.603-0.96c-0.104-0.666-0.212-1.31-0.325-1.928
		c-0.097-0.529-0.2-1.098-0.312-1.708c-0.111-0.609-0.22-1.15-0.324-1.623c-0.169-0.821-0.346-1.509-0.53-2.064
		c-0.185-0.554-0.366-1-0.544-1.338s-0.34-0.58-0.486-0.725c-0.146-0.144-0.279-0.206-0.396-0.185
		c-0.699,0.128-1.372,0.756-2.019,1.884c-0.305,0.51-0.542,0.998-0.712,1.464s-0.276,0.782-0.319,0.948
		c-0.13,0.459-0.117,1.11,0.036,1.953l0.784,4.29c0.077,0.422,0.001,0.802-0.229,1.14c-0.229,0.338-0.546,0.544-0.95,0.618
		c-0.403,0.074-0.774-0.004-1.113-0.234C85.702,101.835,85.493,101.506,85.415,101.075z"/>
	<path fill="#FFFFFF" d="M98.144,93.078c-0.11-0.907-0.066-1.805,0.132-2.69s0.544-1.703,1.034-2.452
		c0.486-0.776,1.066-1.406,1.74-1.892c0.673-0.485,1.407-0.8,2.203-0.946c0.702-0.128,1.397-0.124,2.088,0.016
		c0.689,0.138,1.339,0.421,1.946,0.848c0.827,0.555,1.493,1.272,1.998,2.155c0.408,0.706,0.688,1.481,0.843,2.325
		c0.038,0.206,0.066,0.414,0.087,0.622c0.095,0.927,0.041,1.832-0.16,2.715s-0.536,1.696-1.004,2.438
		c-0.491,0.774-1.078,1.404-1.761,1.89s-1.429,0.802-2.238,0.95c-0.696,0.127-1.388,0.118-2.075-0.03
		c-0.688-0.147-1.333-0.434-1.937-0.859c-0.8-0.538-1.451-1.246-1.953-2.125c-0.408-0.72-0.692-1.514-0.851-2.381
		C98.202,93.471,98.171,93.278,98.144,93.078z M101.083,92.735c0.011,0.11,0.03,0.218,0.06,0.324
		c0.102,0.558,0.274,1.075,0.52,1.551c0.298,0.559,0.664,0.994,1.103,1.304c0.545,0.393,1.141,0.531,1.788,0.412
		c0.386-0.07,0.759-0.242,1.118-0.518c0.357-0.274,0.666-0.645,0.925-1.11c0.276-0.469,0.466-0.989,0.57-1.562
		c0.104-0.572,0.124-1.145,0.056-1.718c-0.008-0.092-0.02-0.183-0.036-0.273c-0.107-0.538-0.299-1.051-0.574-1.54
		c-0.327-0.572-0.727-1.029-1.196-1.37c-0.579-0.369-1.174-0.497-1.784-0.385c-0.81,0.147-1.458,0.685-1.948,1.611
		c-0.259,0.465-0.439,0.984-0.544,1.557C101.034,91.59,101.016,92.162,101.083,92.735z"/>
	<path fill="#FFFFFF" d="M115.283,100.772l-2.896-15.843c-0.074-0.403,0.006-0.772,0.242-1.108c0.234-0.334,0.555-0.539,0.958-0.612
		c0.35-0.064,0.672-0.01,0.968,0.161c0.295,0.171,0.516,0.404,0.663,0.7l0.026-0.005c0.938-0.795,2.049-1.311,3.331-1.545
		l0.31-0.057c0.795-0.108,1.544-0.018,2.245,0.269c0.61,0.25,1.187,0.666,1.729,1.251c0.904,0.99,1.5,2.272,1.787,3.847
		c0.064,0.351,0.133,0.804,0.207,1.362c0.074,0.557,0.067,1.179-0.021,1.863c-0.208,1.653-0.958,2.998-2.251,4.032
		c-0.728,0.588-1.597,0.974-2.609,1.159c-0.439,0.08-0.867,0.122-1.284,0.124c-0.417,0.002-0.819-0.021-1.208-0.071l0.72,3.94
		c0.074,0.403-0.004,0.774-0.234,1.113c-0.229,0.338-0.547,0.544-0.95,0.618s-0.775-0.007-1.114-0.241
		C115.562,101.494,115.356,101.175,115.283,100.772z M116.913,93.19c0.318,0.072,0.709,0.129,1.17,0.169
		c0.462,0.042,0.935,0.018,1.419-0.071c0.547-0.1,1.004-0.29,1.369-0.571c0.617-0.476,0.995-1.117,1.136-1.923
		c0.072-0.413,0.088-0.834,0.047-1.264c-0.042-0.429-0.096-0.828-0.163-1.197c-0.042-0.225-0.124-0.524-0.247-0.897
		c-0.124-0.372-0.29-0.735-0.498-1.087c-0.208-0.352-0.457-0.646-0.745-0.882c-0.288-0.235-0.627-0.327-1.016-0.274l-0.256,0.047
		c-0.95,0.174-1.759,0.568-2.425,1.182c-0.233,0.192-0.413,0.388-0.539,0.587c-0.125,0.2-0.224,0.362-0.293,0.486L116.913,93.19z"/>
</g>
<path fill="none" stroke="#FFFFFF" stroke-width="2" stroke-linecap="round" stroke-miterlimit="10" d="M189.56,50.756
	c6.632,8.5,9.499-1.213,12.205-2.368c3.253-1.389,7.876,0.855,10.829,2.69c10.052,6.243,18.626,17.417,25.949,26.539
	c2.1,2.616,4.157,5.319,6.148,8.012c0,0-22.117,47.357,17.441,76.742"/>
<path fill="#333333" stroke="#333333" stroke-width="1.8058" stroke-linecap="round" stroke-linejoin="round" stroke-miterlimit="10" d="
	M322.451,130.163c0,0-3.16,6.471,0,6.471C325.611,136.634,323.654,133.323,322.451,130.163z"/>
<path fill="none" stroke="#B2C460" stroke-width="3.2473" stroke-linecap="round" stroke-linejoin="round" stroke-miterlimit="10" d="
	M326.366,234.767c0,0,33.123-31.225,35.071-44.214c1.948-12.989,19.703,38.751,11.692,51.632"/>
<path fill="#ED6E46" stroke="#ED6E46" stroke-width="5.1957" stroke-miterlimit="10" d="M373.12,244.663
	c0.745-0.051,1.534-0.206,2.4-0.488c3.617-1.176,9.003-2.968,11.976,1.339c6.407,9.283,2.45,23.745-7.814,28.27
	c-11.733,5.173-25.057-7.202-23.961-19.126c0.538-5.856,3.469-15.277,11.107-11.677C369.136,244.07,370.944,244.812,373.12,244.663z
	"/>
<path fill="#ED6E46" stroke="#ED6E46" stroke-width="5.1957" stroke-miterlimit="10" d="M326.865,237.746
	c0.738,0.116,1.541,0.14,2.449,0.057c3.788-0.344,9.437-0.896,11.38,3.965c4.186,10.474-2.883,23.696-13.895,25.83
	c-12.589,2.439-22.832-12.585-19.117-23.968c1.825-5.59,6.774-14.126,13.422-8.92C323.112,236.283,324.71,237.408,326.865,237.746z"
	/>
<path fill="#B2C460" stroke="#B2C460" stroke-width="1.6908" stroke-linecap="round" stroke-linejoin="round" stroke-miterlimit="10" d="
	M360.333,189.329c-0.57-2.583,0.172-5.492,2.449-8.364c4.751-5.991,10.021-7.453,17.336-7.584c0.003,0,9.398-0.168,11.353-8.512
	c-1.215,5.187-2.371,10.27-4.154,15.318c-2.897,8.202-9.519,20.622-20.242,16.161C363.341,194.793,360.984,192.274,360.333,189.329z
	"/>
</svg>
