<?xml version="1.0" encoding="utf-8"?>
<!-- Generator: Adobe Illustrator 17.0.2, SVG Export Plug-In . SVG Version: 6.00 Build 0)  -->
<!DOCTYPE svg PUBLIC "-//W3C//DTD SVG 1.1//EN" "http://www.w3.org/Graphics/SVG/1.1/DTD/svg11.dtd">
<svg version="1.1" id="Your_Icon" xmlns="http://www.w3.org/2000/svg" xmlns:xlink="http://www.w3.org/1999/xlink" x="0px" y="0px"
	 width="56.065px" height="45.885px" viewBox="0 0 56.065 45.885" enable-background="new 0 0 56.065 45.885" xml:space="preserve">
<path fill="none" stroke="#7AA23F" stroke-width="2.473" stroke-linecap="round" stroke-linejoin="round" stroke-miterlimit="10" d="
	M54.828,41.954c0,1.488-1.206,2.695-2.695,2.695H3.931c-1.488,0-2.695-1.206-2.695-2.695V3.931c0-1.488,1.206-2.695,2.695-2.695
	h48.203c1.488,0,2.695,1.206,2.695,2.695V41.954z"/>
<path fill="none" stroke="#EF9235" stroke-linecap="round" stroke-linejoin="round" stroke-miterlimit="10" d="M29.075,12.136
	c-1.563,2.244-2.881,2.242-2.881,2.242 M26.548,9.39c-1.941,4.497,0.123,7.019,0.123,7.019"/>
<path fill="#EF9235" stroke="#EF9235" stroke-width="0.4091" stroke-linecap="round" stroke-linejoin="round" stroke-miterlimit="10" d="
	M28.453,10.921c-0.082-0.635,0.159-1.32,0.769-1.963c1.273-1.342,2.575-1.582,4.34-1.457c0.001,0,2.269,0.161,2.918-1.809
	c-0.404,1.224-0.791,2.424-1.329,3.603c-0.874,1.915-2.735,4.766-5.224,3.462C29.061,12.303,28.547,11.645,28.453,10.921z
	 M34.187,16.939c-5.971-3.399-13.567-1.315-16.966,4.656s-1.315,13.567,4.656,16.966s13.567,1.315,16.966-4.656
	C42.243,27.934,40.158,20.339,34.187,16.939z"/>
</svg>
