<?xml version="1.0" encoding="utf-8"?>
<!-- Generator: Adobe Illustrator 17.0.2, SVG Export Plug-In . SVG Version: 6.00 Build 0)  -->
<!DOCTYPE svg PUBLIC "-//W3C//DTD SVG 1.1//EN" "http://www.w3.org/Graphics/SVG/1.1/DTD/svg11.dtd">
<svg version="1.1" id="Your_Icon" xmlns="http://www.w3.org/2000/svg" xmlns:xlink="http://www.w3.org/1999/xlink" x="0px" y="0px"
	 width="93.114px" height="65.45px" viewBox="0 0 93.114 65.45" enable-background="new 0 0 93.114 65.45" xml:space="preserve">
<path fill="#F4EB27" stroke="#F4EB27" stroke-width="3.1927" stroke-linecap="round" stroke-linejoin="round" stroke-miterlimit="10" d="
	M91.518,32.725c0,3.68-2.977,6.657-6.649,6.657c-0.12,0-0.231,0-0.351-0.008c-3.767,14-19.212,24.48-37.697,24.48
	c-18.494,0-33.954-10.504-37.705-24.528c-0.287,0.04-0.575,0.056-0.87,0.056c-3.672,0-6.649-2.977-6.649-6.657
	c0-3.672,2.977-6.649,6.649-6.649c0.295,0,0.583,0.016,0.87,0.056C12.859,12.108,28.319,1.596,46.821,1.596
	c18.486,0,33.93,10.488,37.697,24.488h0.008c0.112-0.008,0.231-0.008,0.343-0.008C88.541,26.076,91.518,29.053,91.518,32.725z"/>
</svg>
