<?xml version="1.0" encoding="utf-8"?>
<!-- Generator: Adobe Illustrator 17.0.2, SVG Export Plug-In . SVG Version: 6.00 Build 0)  -->
<!DOCTYPE svg PUBLIC "-//W3C//DTD SVG 1.1//EN" "http://www.w3.org/Graphics/SVG/1.1/DTD/svg11.dtd">
<svg version="1.1" id="Your_Icon" xmlns="http://www.w3.org/2000/svg" xmlns:xlink="http://www.w3.org/1999/xlink" x="0px" y="0px"
	 width="81.5px" height="57.286px" viewBox="0 0 81.5 57.286" enable-background="new 0 0 81.5 57.286" xml:space="preserve">
<path fill="#7AA33F" stroke="#7AA33F" stroke-width="2.7944" stroke-linecap="round" stroke-linejoin="round" stroke-miterlimit="10" d="
	M80.102,28.643c0,3.221-2.606,5.826-5.819,5.826c-0.105,0-0.203,0-0.307-0.007C70.678,46.716,57.16,55.889,40.98,55.889
	c-16.187,0-29.719-9.194-33.002-21.468c-0.252,0.035-0.503,0.049-0.762,0.049c-3.214,0-5.819-2.606-5.819-5.826
	c0-3.214,2.606-5.819,5.819-5.819c0.258,0,0.51,0.014,0.762,0.049C11.255,10.598,24.787,1.397,40.98,1.397
	c16.18,0,29.698,9.18,32.995,21.433h0.007c0.098-0.007,0.203-0.007,0.3-0.007C77.497,22.823,80.102,25.429,80.102,28.643z"/>
</svg>
