<?xml version="1.0" encoding="utf-8"?>
<!-- Generator: Adobe Illustrator 17.0.2, SVG Export Plug-In . SVG Version: 6.00 Build 0)  -->
<!DOCTYPE svg PUBLIC "-//W3C//DTD SVG 1.1//EN" "http://www.w3.org/Graphics/SVG/1.1/DTD/svg11.dtd">
<svg version="1.1" id="Your_Icon" xmlns="http://www.w3.org/2000/svg" xmlns:xlink="http://www.w3.org/1999/xlink" x="0px" y="0px"
	 width="63.845px" height="89.039px" viewBox="0 0 63.845 89.039" enable-background="new 0 0 63.845 89.039" xml:space="preserve">
<path fill="#EF9235" stroke="#EF9235" stroke-width="1.0496" stroke-linecap="round" stroke-linejoin="round" stroke-miterlimit="10" d="
	M33.002,13.939c-0.211-1.628,0.408-3.387,1.973-5.037c3.266-3.444,6.606-4.058,11.136-3.737c0.002,0,5.82,0.412,7.487-4.64
	c-1.036,3.14-2.03,6.22-3.409,9.243c-2.242,4.913-7.018,12.228-13.403,8.881C34.561,17.483,33.242,15.796,33.002,13.939z"/>
<path fill="none" stroke="#EF9235" stroke-width="2.1577" stroke-linecap="round" stroke-linejoin="round" stroke-miterlimit="10" d="
	M27.206,22.807c0,0,3.381,0.005,7.392-5.752"/>
<path fill="none" stroke="#EF9235" stroke-width="3.3702" stroke-linecap="round" stroke-miterlimit="10" d="M28.431,28.02
	c0,0-5.297-6.47-0.317-18.009"/>
<circle fill="#EF9235" cx="31.923" cy="57.116" r="31.917"/>
</svg>
